<?xml version="1.0" encoding="iso-8859-1"?>
<!-- Generator: Adobe Illustrator 18.0.0, SVG Export Plug-In . SVG Version: 6.00 Build 0)  -->
<!DOCTYPE svg PUBLIC "-//W3C//DTD SVG 1.1//EN" "http://www.w3.org/Graphics/SVG/1.1/DTD/svg11.dtd">
<svg xmlns="http://www.w3.org/2000/svg" xmlns:xlink="http://www.w3.org/1999/xlink" version="1.1" id="Capa_1" x="0px" y="0px" viewBox="0 0 286.39 286.39" style="enable-background:new 0 0 286.39 286.39;" xml:space="preserve" width="512px" height="512px">
<g>
	<path d="M21.518,241.04h83.561v21.152H70.382c-3.04,0-5.503,2.464-5.503,5.503c0,3.039,2.463,5.503,5.503,5.503h40.2h65.222h40.201   c3.039,0,5.503-2.464,5.503-5.503c0-3.039-2.463-5.503-5.503-5.503h-34.698V241.04h83.567c11.864,0,21.516-9.652,21.516-21.517   v-23.016V57.724V34.709c0-11.865-9.652-21.519-21.516-21.519H21.518C9.653,13.191,0,22.844,0,34.709v23.015v138.784v23.016   C0,231.388,9.653,241.04,21.518,241.04z M170.301,262.193h-54.216V241.04h54.216V262.193z M275.384,219.524   c0,5.796-4.715,10.511-10.51,10.511h-89.07h-65.222H21.518c-5.796,0-10.512-4.715-10.512-10.511v-17.513h99.556h65.269h99.554   V219.524z M275.384,191.005h-94.051v-31.27c0-14.84-12.073-26.913-26.914-26.913h-22.448c-14.839,0-26.912,12.073-26.912,26.913   v31.27H11.006V63.226h264.378V191.005z M116.064,191.005v-31.27c0-8.771,7.136-15.907,15.906-15.907h22.448   c8.771,0,15.908,7.136,15.908,15.907v31.27H116.064z M11.006,34.709c0-5.796,4.716-10.513,10.512-10.513h243.356   c5.795,0,10.51,4.717,10.51,10.513V52.22H11.006V34.709z" fill="#91DC5A"/>
	<path d="M143.105,129.083c15.231,0,27.623-12.392,27.623-27.622c0-15.231-12.392-27.623-27.623-27.623   c-15.232,0-27.625,12.392-27.625,27.623C115.48,116.692,127.873,129.083,143.105,129.083z M143.105,84.844   c9.162,0,16.617,7.454,16.617,16.617c0,9.162-7.454,16.616-16.617,16.616c-9.164,0-16.619-7.454-16.619-16.616   C126.486,92.298,133.941,84.844,143.105,84.844z" fill="#91DC5A"/>
</g>
<g>
</g>
<g>
</g>
<g>
</g>
<g>
</g>
<g>
</g>
<g>
</g>
<g>
</g>
<g>
</g>
<g>
</g>
<g>
</g>
<g>
</g>
<g>
</g>
<g>
</g>
<g>
</g>
<g>
</g>
</svg>
